<?xml version="1.0" standalone="no"?>
<!DOCTYPE svg PUBLIC "-//W3C//DTD SVG 20010904//EN"
 "http://www.w3.org/TR/2001/REC-SVG-20010904/DTD/svg10.dtd">
<svg version="1.0" xmlns="http://www.w3.org/2000/svg"
 width="100.000000pt" height="100.000000pt" viewBox="0 0 100.000000 100.000000"
 preserveAspectRatio="xMidYMid meet">

<g transform="translate(0.000000,100.000000) scale(0.100000,-0.100000)"
fill="#5aa900" stroke="none">
<path d="M422 939 c-24 -12 -50 -32 -59 -45 -12 -20 -24 -24 -62 -24 -95 -1
-170 -76 -171 -171 0 -38 -4 -50 -24 -62 -31 -20 -66 -94 -66 -137 0 -43 35
-117 66 -137 20 -12 24 -24 24 -62 1 -95 76 -170 171 -171 38 0 50 -4 62 -24
20 -31 94 -66 137 -66 43 0 117 35 137 66 12 20 24 24 62 24 95 1 170 76 171
171 0 38 4 50 24 62 31 20 66 94 66 137 0 43 -35 117 -66 137 -20 12 -24 24
-24 62 -1 95 -76 170 -171 171 -38 0 -50 4 -62 24 -21 31 -94 66 -138 66 -19
0 -53 -10 -77 -21z m276 -312 c9 -10 -20 -45 -126 -150 l-137 -137 -73 73
c-65 65 -71 75 -57 87 14 12 24 6 73 -43 l57 -57 120 120 c66 66 123 120 126
120 4 0 11 -6 17 -13z"/>
</g>
</svg>
