<?xml version="1.0" standalone="no"?>
<!DOCTYPE svg PUBLIC "-//W3C//DTD SVG 20010904//EN"
 "http://www.w3.org/TR/2001/REC-SVG-20010904/DTD/svg10.dtd">
<svg version="1.0" xmlns="http://www.w3.org/2000/svg"
 width="512.000000pt" height="512.000000pt" viewBox="0 0 512.000000 512.000000"
 preserveAspectRatio="xMidYMid meet">

<g transform="translate(0.000000,512.000000) scale(0.100000,-0.100000)"
fill="#000000" stroke="none">
<path d="M2515 5109 c-11 -6 -159 -150 -330 -320 l-310 -309 -587 -2 -588 -3
-27 -28 -28 -27 -3 -588 -2 -587 -315 -315 c-205 -206 -316 -325 -320 -342 -4
-16 -4 -40 0 -56 4 -17 115 -136 320 -342 l315 -315 2 -587 3 -588 28 -27 27
-28 588 -3 587 -2 315 -315 c206 -205 325 -316 343 -320 15 -4 39 -4 55 0 17
4 136 115 342 320 l315 315 587 2 588 3 27 28 28 27 3 588 2 587 315 315 c205
206 316 325 320 343 4 15 4 39 0 55 -4 17 -115 136 -320 342 l-315 315 -2 587
-3 588 -28 27 -27 28 -588 3 -587 2 -310 309 c-170 170 -320 314 -332 320 -27
14 -62 14 -88 0z m297 -1078 c602 -104 1074 -559 1211 -1169 18 -82 21 -128
21 -302 0 -174 -3 -220 -21 -302 -32 -139 -66 -238 -129 -363 -210 -423 -617
-726 -1082 -806 -144 -24 -278 -25 -311 -3 -53 38 -51 -25 -51 1474 0 1499 -2
1436 51 1474 33 22 167 21 311 -3z"/>
</g>
</svg>
